<svg width="10" height="9" viewBox="0 0 10 9" fill="none" xmlns="http://www.w3.org/2000/svg">
<circle cx="4.64686" cy="4.52943" r="4.19118" fill="#F3F7F9" stroke="#FB6B9E" stroke-width="0.558824"/>
<path d="M4.28706 7.13931C4.15741 7.13931 4.05906 7.10131 3.992 7.02531C3.92494 6.94484 3.89141 6.85319 3.89141 6.75037C3.89141 6.70119 3.89589 6.64978 3.90483 6.59613C3.91824 6.54248 3.92941 6.49331 3.93836 6.4486L4.54189 4.00766H3.93836L3.992 3.77296L5.20577 3.51813L4.40777 6.70343L4.52847 6.75707L5.29965 5.9859L5.46059 6.11331L4.98447 6.6699C4.828 6.85766 4.69612 6.98284 4.58883 7.04543C4.486 7.10801 4.38541 7.13931 4.28706 7.13931ZM5.11189 2.78049C5.00906 2.78049 4.93083 2.75143 4.87718 2.69331C4.828 2.63519 4.80341 2.5726 4.80341 2.50554C4.80341 2.48766 4.80341 2.46754 4.80341 2.44519C4.80341 2.42284 4.80789 2.40049 4.81683 2.37813C4.83918 2.28872 4.88389 2.21719 4.95094 2.16354C5.018 2.10543 5.10294 2.07637 5.20577 2.07637C5.30859 2.07637 5.38459 2.10543 5.43377 2.16354C5.48741 2.22166 5.51424 2.28425 5.51424 2.35131C5.51424 2.36919 5.51424 2.38931 5.51424 2.41166C5.51424 2.43401 5.50977 2.45637 5.50083 2.47872C5.47847 2.56813 5.43377 2.6419 5.36671 2.70001C5.29965 2.75366 5.21471 2.78049 5.11189 2.78049Z" fill="#FB6B9E"/>
</svg>
