<svg width="41" height="43" viewBox="0 0 41 43" fill="none" xmlns="http://www.w3.org/2000/svg">
<circle cx="18.48" cy="18.48" r="18.48" fill="#FEBB0F"/>
<circle cx="18.4799" cy="18.4802" r="14.28" fill="#F3F7F9"/>
<circle cx="18.4801" cy="18.4796" r="10.08" stroke="#FEBB0F" stroke-width="1.68" stroke-dasharray="1.68 1.68"/>
<path d="M17.2524 22.6804V17.705H15.1201L18.674 13.4404L22.2278 17.705H20.0955V22.6804H17.2524Z" fill="url(#paint0_linear_3397_178935)"/>
<rect opacity="0.5" x="23" y="25" width="18" height="18" rx="9" fill="#F3F7F9"/>
<rect x="25" y="27" width="13.9999" height="13.9999" rx="6.99995" fill="url(#paint1_linear_3397_178935)"/>
<path d="M31.4234 35.9999L31.4235 35.9999L31.4275 35.9956C32.5431 34.8197 32.5127 32.9519 31.3389 31.8069C31.2603 31.7275 31.2606 31.6194 31.3398 31.5402C31.4119 31.468 31.5259 31.4512 31.642 31.5469L31.7173 31.6222C32.9969 32.9558 32.9685 35.07 31.6385 36.3479L31.6384 36.3479L31.6353 36.3511C31.5558 36.4306 31.4193 36.4306 31.3398 36.3511C31.2603 36.2716 31.2603 36.163 31.3398 36.0835L31.3816 36.0417L31.4234 35.9999Z" stroke="white" stroke-width="0.449355" stroke-linecap="round" stroke-linejoin="round"/>
<path d="M30.2246 34.8286L30.2247 34.8286L30.2297 34.8234C30.7258 34.2941 30.7341 33.4569 30.1947 32.9479C30.1198 32.8711 30.118 32.768 30.1894 32.69C30.2728 32.6278 30.4182 32.6282 30.5009 32.691L30.5464 32.7365C31.1829 33.3991 31.1587 34.4822 30.4953 35.1211L30.4952 35.121L30.4922 35.124C30.4127 35.2035 30.2763 35.2035 30.1968 35.124C30.1173 35.0445 30.1173 34.9359 30.1968 34.8564L30.1968 34.8564L30.2246 34.8286Z" stroke="white" stroke-width="0.449355" stroke-linecap="round" stroke-linejoin="round"/>
<path d="M32.0169 38.406L32.1757 38.2471C32.0962 38.1676 32.0962 38.059 32.1757 37.9795L32.2454 37.9098L32.3151 37.8402L32.3151 37.8402L32.3183 37.8369C34.4377 35.6304 34.381 32.1447 32.1744 30.0232C32.0962 29.9438 32.0967 29.836 32.1757 29.757C32.2552 29.6775 32.3917 29.6775 32.4712 29.757C32.536 29.8217 32.5605 29.8498 32.5685 29.8658C32.5789 29.8866 32.5925 29.9057 32.6087 29.9223C34.8899 32.2572 34.8103 35.9886 32.474 38.2444L32.474 38.2443L32.4712 38.2471C32.3917 38.3266 32.2552 38.3266 32.1757 38.2471L32.0169 38.406Z" stroke="white" stroke-width="0.449355" stroke-linecap="round" stroke-linejoin="round"/>
<defs>
<linearGradient id="paint0_linear_3397_178935" x1="15.1201" y1="18.0604" x2="22.2278" y2="18.0604" gradientUnits="userSpaceOnUse">
<stop stop-color="#1F8098"/>
<stop offset="0.540643" stop-color="#30A6A0"/>
<stop offset="1" stop-color="#3FC6A6"/>
</linearGradient>
<linearGradient id="paint1_linear_3397_178935" x1="25" y1="34" x2="38.9999" y2="34" gradientUnits="userSpaceOnUse">
<stop stop-color="#1F8098"/>
<stop offset="1" stop-color="#3FC6A6"/>
</linearGradient>
</defs>
</svg>
