<svg width="24" height="24" viewBox="0 0 24 24" fill="none" xmlns="http://www.w3.org/2000/svg">
<rect x="1" y="1" width="22" height="22" rx="11" fill="url(#paint0_linear_1709_333)" stroke="#F3F7F9" stroke-width="2"/>
<path d="M11.1025 15.5168L11.1026 15.5169L11.1119 15.5071C13.0725 13.4406 13.019 10.1589 10.9574 8.14699C10.873 8.06118 10.8736 7.95712 10.9591 7.87155C11.0293 7.80136 11.1479 7.76451 11.3002 7.88768L11.3558 7.94323L11.4237 8.0112C13.5682 10.2471 13.5193 13.7896 11.2914 15.9301L11.2914 15.9301L11.2841 15.9373C11.1979 16.0235 11.0453 16.0235 10.9591 15.9373C10.873 15.8512 10.873 15.7463 10.9591 15.6602L11.0308 15.5885L11.1025 15.5168Z" stroke="#F3F7F9" stroke-width="1.0271" stroke-linecap="round" stroke-linejoin="round"/>
<path d="M9.04703 13.5092L9.05854 13.4973C9.95356 12.5426 9.9726 11.0274 8.99518 10.1029C8.91897 10.0237 8.9147 9.9293 8.98235 9.84834C9.07925 9.78434 9.25158 9.78544 9.3459 9.85163L9.37197 9.87771L9.41617 9.92191C10.4569 11.0064 10.4175 12.7812 9.3311 13.8274L9.33104 13.8273L9.32418 13.8341C9.23804 13.9203 9.08538 13.9203 8.99923 13.8341C8.91309 13.748 8.91309 13.6431 8.99923 13.557L8.99924 13.557L9.04703 13.5092Z" stroke="#F3F7F9" stroke-width="1.0271" stroke-linecap="round" stroke-linejoin="round"/>
<path d="M12.6312 18.6705L12.6312 18.6706L12.6384 18.6631C16.3201 14.8302 16.2225 8.77443 12.3895 5.08794C12.3061 5.00232 12.307 4.89874 12.3922 4.81351C12.4784 4.72737 12.6311 4.72737 12.7172 4.81351C12.7676 4.86388 12.8027 4.89932 12.8312 4.9319C12.8534 4.95722 12.8609 4.96907 12.8614 4.96966C12.885 5.0161 12.9155 5.05869 12.9519 5.09596C16.8122 9.0471 16.6781 15.3622 12.7236 19.1803L12.7236 19.1802L12.7172 19.1866C12.6311 19.2727 12.4784 19.2727 12.3922 19.1866C12.3061 19.1005 12.3061 18.9956 12.3922 18.9094L12.4565 18.8452L12.4708 18.8309L12.4846 18.8171L12.4982 18.8034L12.505 18.7967L12.5058 18.7959L12.5067 18.795L12.5083 18.7933L12.5117 18.79L12.5252 18.7765L12.5388 18.7629L12.5526 18.749L12.567 18.7347L12.5974 18.7043L12.6138 18.6879L12.6312 18.6705Z" stroke="#F3F7F9" stroke-width="1.0271" stroke-linecap="round" stroke-linejoin="round"/>
<defs>
<linearGradient id="paint0_linear_1709_333" x1="0" y1="12" x2="24" y2="12" gradientUnits="userSpaceOnUse">
<stop stop-color="#1F8098"/>
<stop offset="0.540643" stop-color="#30A6A0"/>
<stop offset="1" stop-color="#3FC6A6"/>
</linearGradient>
</defs>
</svg>
