<svg width="11" height="11" viewBox="0 0 11 11" fill="none" xmlns="http://www.w3.org/2000/svg">
<circle cx="5.5" cy="5.5" r="5" fill="#F3F7F9" stroke="url(#paint0_linear_1739_64)"/>
<path d="M5.017 9.108C4.843 9.108 4.711 9.057 4.621 8.955C4.531 8.847 4.486 8.724 4.486 8.586C4.486 8.52 4.492 8.451 4.504 8.379C4.522 8.307 4.537 8.241 4.549 8.181L5.359 4.905H4.549L4.621 4.59L6.25 4.248L5.179 8.523L5.341 8.595L6.376 7.56L6.592 7.731L5.953 8.478C5.743 8.73 5.566 8.898 5.422 8.982C5.284 9.066 5.149 9.108 5.017 9.108ZM6.124 3.258C5.986 3.258 5.881 3.219 5.809 3.141C5.743 3.063 5.71 2.979 5.71 2.889C5.71 2.865 5.71 2.838 5.71 2.808C5.71 2.778 5.716 2.748 5.728 2.718C5.758 2.598 5.818 2.502 5.908 2.43C5.998 2.352 6.112 2.313 6.25 2.313C6.388 2.313 6.49 2.352 6.556 2.43C6.628 2.508 6.664 2.592 6.664 2.682C6.664 2.706 6.664 2.733 6.664 2.763C6.664 2.793 6.658 2.823 6.646 2.853C6.616 2.973 6.556 3.072 6.466 3.15C6.376 3.222 6.262 3.258 6.124 3.258Z" fill="url(#paint1_linear_1739_64)"/>
<defs>
<linearGradient id="paint0_linear_1739_64" x1="0" y1="5.5" x2="11" y2="5.5" gradientUnits="userSpaceOnUse">
<stop stop-color="#1F8098"/>
<stop offset="0.540643" stop-color="#30A6A0"/>
<stop offset="1" stop-color="#3FC6A6"/>
</linearGradient>
<linearGradient id="paint1_linear_1739_64" x1="4" y1="4" x2="11" y2="4" gradientUnits="userSpaceOnUse">
<stop stop-color="#1F8098"/>
<stop offset="0.540643" stop-color="#30A6A0"/>
<stop offset="1" stop-color="#3FC6A6"/>
</linearGradient>
</defs>
</svg>
