<svg width="11" height="11" viewBox="0 0 11 11" fill="none" xmlns="http://www.w3.org/2000/svg">
<circle cx="5.86214" cy="5.36715" r="4.81655" fill="#F3F7F9" stroke="#FEBB0F" stroke-width="0.642207"/>
<path d="M5.44908 8.32197C5.30009 8.32197 5.18706 8.2783 5.10999 8.19096C5.03293 8.09848 4.9944 7.99316 4.9944 7.87499C4.9944 7.81848 4.99953 7.7594 5.00981 7.69775C5.02522 7.63609 5.03807 7.57958 5.04834 7.5282L5.74193 4.72304H5.04834L5.10999 4.45332L6.50487 4.16047L5.5878 7.82105L5.72651 7.8827L6.61276 6.99646L6.79771 7.14288L6.25055 7.78252C6.07074 7.9983 5.91917 8.14215 5.79587 8.21408C5.6777 8.28601 5.56211 8.32197 5.44908 8.32197ZM6.39698 3.31276C6.27881 3.31276 6.1889 3.27936 6.12725 3.21257C6.07074 3.14578 6.04248 3.07386 6.04248 2.99679C6.04248 2.97624 6.04248 2.95312 6.04248 2.92743C6.04248 2.90175 6.04762 2.87606 6.05789 2.85037C6.08358 2.74762 6.13496 2.66541 6.21202 2.60376C6.28909 2.53697 6.3867 2.50358 6.50487 2.50358C6.62303 2.50358 6.71037 2.53697 6.76689 2.60376C6.82854 2.67055 6.85937 2.74248 6.85937 2.81954C6.85937 2.84009 6.85937 2.86321 6.85937 2.8889C6.85937 2.91459 6.85423 2.94028 6.84395 2.96597C6.81826 3.06872 6.76689 3.15349 6.68982 3.22028C6.61276 3.28193 6.51514 3.31276 6.39698 3.31276Z" fill="#FEBB0F"/>
</svg>
