<svg width="20" height="20" viewBox="0 0 20 20" fill="none" xmlns="http://www.w3.org/2000/svg">
<rect x="0.647815" y="0.647815" width="18.7044" height="18.7044" rx="9.35219" stroke="url(#paint0_linear_1709_332)" stroke-width="1.29563"/>
<path d="M9.22177 12.9004L9.22186 12.9005L9.22884 12.8931C10.8466 11.1879 10.8025 8.47972 9.10095 6.81948C9.01382 6.73118 9.01427 6.6174 9.10231 6.52936C9.17857 6.4531 9.30287 6.42493 9.44552 6.54125L9.55031 6.64604C11.3538 8.52606 11.3131 11.5055 9.43913 13.306L9.43908 13.3059L9.43363 13.3114C9.34513 13.3999 9.19081 13.3999 9.10231 13.3114C9.01381 13.2229 9.01381 13.1084 9.10231 13.0199L9.16204 12.9601L9.22177 12.9004Z" stroke="url(#paint1_linear_1709_332)" stroke-width="0.770328" stroke-linecap="round" stroke-linejoin="round"/>
<path d="M7.50912 11.2273L7.50926 11.2274L7.51775 11.2184C8.2488 10.4386 8.26304 9.20253 7.46607 8.44945C7.38513 8.36588 7.382 8.26002 7.45666 8.17472C7.55257 8.10735 7.7219 8.10807 7.81624 8.17687L7.84043 8.20106L7.87758 8.23821C8.76163 9.15906 8.7281 10.6654 7.80579 11.5535L7.80575 11.5535L7.80061 11.5586C7.71211 11.6471 7.55779 11.6471 7.46929 11.5586C7.38079 11.4701 7.38079 11.3556 7.46929 11.2671L7.4693 11.2671L7.50912 11.2273Z" stroke="url(#paint2_linear_1709_332)" stroke-width="0.770328" stroke-linecap="round" stroke-linejoin="round"/>
<path d="M10.4957 15.5284L10.4957 15.5285L10.5011 15.5229C13.5531 12.3455 13.4719 7.32577 10.2944 4.27024C10.2081 4.18204 10.2088 4.06868 10.2966 3.9809C10.3851 3.8924 10.5394 3.8924 10.6279 3.9809L10.9002 3.70854L10.6279 3.9809C10.6696 4.02265 10.7 4.05322 10.7248 4.08163C10.7457 4.10552 10.7534 4.1175 10.7547 4.11967C10.755 4.12015 10.755 4.12015 10.7548 4.1197C10.7727 4.15539 10.7959 4.18808 10.8238 4.21662C14.0575 7.5264 13.945 12.8162 10.6327 16.0143L10.6326 16.0142L10.6279 16.019C10.5394 16.1075 10.3851 16.1075 10.2966 16.019C10.2081 15.9305 10.2081 15.816 10.2966 15.7275L10.4957 15.5284Z" stroke="url(#paint3_linear_1709_332)" stroke-width="0.770328" stroke-linecap="round" stroke-linejoin="round"/>
<defs>
<linearGradient id="paint0_linear_1709_332" x1="0" y1="10" x2="20" y2="10" gradientUnits="userSpaceOnUse">
<stop stop-color="#1F8098"/>
<stop offset="0.540643" stop-color="#30A6A0"/>
<stop offset="1" stop-color="#3FC6A6"/>
</linearGradient>
<linearGradient id="paint1_linear_1709_332" x1="9.95515" y1="6.07782" x2="9.95515" y2="13.7629" gradientUnits="userSpaceOnUse">
<stop stop-color="#1F8098"/>
<stop offset="0.540643" stop-color="#30A6A0"/>
<stop offset="1" stop-color="#3FC6A6"/>
</linearGradient>
<linearGradient id="paint2_linear_1709_332" x1="7.96129" y1="7.73956" x2="7.96129" y2="12.0101" gradientUnits="userSpaceOnUse">
<stop stop-color="#1F8098"/>
<stop offset="0.540643" stop-color="#30A6A0"/>
<stop offset="1" stop-color="#3FC6A6"/>
</linearGradient>
<linearGradient id="paint3_linear_1709_332" x1="11.7073" y1="3.52936" x2="11.7073" y2="16.4705" gradientUnits="userSpaceOnUse">
<stop stop-color="#1F8098"/>
<stop offset="0.540643" stop-color="#30A6A0"/>
<stop offset="1" stop-color="#3FC6A6"/>
</linearGradient>
</defs>
</svg>
